<?xml version="1.0" encoding="UTF-8" standalone="no"?>
<!-- Created with Inkscape (http://www.inkscape.org/) -->

<svg
   version="1.1"
   id="svg2"
   width="430.86667"
   height="170.08"
   viewBox="0 0 430.86667 170.08"
   sodipodi:docname="UU_logo_NL_RGB.svg"
   inkscape:version="1.2.2 (b0a8486541, 2022-12-01)"
   xmlns:inkscape="http://www.inkscape.org/namespaces/inkscape"
   xmlns:sodipodi="http://sodipodi.sourceforge.net/DTD/sodipodi-0.dtd"
   xmlns="http://www.w3.org/2000/svg"
   xmlns:svg="http://www.w3.org/2000/svg">
  <defs
     id="defs6">
    <clipPath
       clipPathUnits="userSpaceOnUse"
       id="clipPath22">
      <path
         d="m 722.879,368.414 c 148.75,0 269.328,120.586 269.328,269.336 0,148.73 -120.578,269.34 -269.328,269.34 -148.758,0 -269.344,-120.61 -269.344,-269.34 0,-148.75 120.586,-269.336 269.344,-269.336 z"
         id="path20" />
    </clipPath>
  </defs>
  <sodipodi:namedview
     id="namedview4"
     pagecolor="#ffffff"
     bordercolor="#000000"
     borderopacity="0.25"
     inkscape:showpageshadow="2"
     inkscape:pageopacity="0.0"
     inkscape:pagecheckerboard="0"
     inkscape:deskcolor="#d1d1d1"
     showgrid="false"
     inkscape:zoom="3.3653102"
     inkscape:cx="215.43333"
     inkscape:cy="85.43046"
     inkscape:window-width="2560"
     inkscape:window-height="1305"
     inkscape:window-x="0"
     inkscape:window-y="32"
     inkscape:window-maximized="1"
     inkscape:current-layer="g10">
    <inkscape:page
       x="0"
       y="0"
       id="page8"
       width="430.86667"
       height="170.08" />
  </sodipodi:namedview>
  <g
     id="g10"
     inkscape:groupmode="layer"
     inkscape:label="Page 1"
     transform="matrix(1.3333333,0,0,-1.3333333,0,170.08)">
    <g
       id="g12"
       transform="scale(0.1)">
      <path
         d="m 680.941,898.027 5.114,6.547 8.66,1.059 6.535,-5.141 h 43.207 l 6.547,5.141 8.637,-1.059 5.132,-6.535 41.965,-10.348 7.571,3.422 8.14,-3.093 3.414,-7.59 38.219,-20.043 8.172,1.488 7.16,-4.926 1.496,-8.203 32.36,-28.633 8.281,-0.527 5.762,-6.504 -0.489,-8.301 24.512,-35.508 7.941,-2.48 4.063,-7.715 -2.473,-7.93 15.324,-40.41 7.129,-4.297 2.071,-8.457 -4.289,-7.109 5.187,-42.891 5.879,-5.879 v -8.73 l -5.879,-5.859 -5.187,-42.852 4.308,-7.109 -2.07,-8.477 -7.129,-4.277 -15.324,-40.41 2.472,-7.93 -4.062,-7.734 -7.922,-2.461 -24.551,-35.547 0.489,-8.321 -5.762,-6.503 -8.281,-0.489 -32.313,-28.633 -1.504,-8.183 -7.148,-4.961 -8.184,1.523 -38.269,-20.078 -3.403,-7.597 -8.14,-3.086 -7.582,3.418 -41.911,-10.352 -5.125,-6.543 -8.648,-1.035 -6.531,5.137 h -43.219 l -6.539,-5.137 -8.649,1.035 -5.121,6.543 -41.961,10.352 -7.574,-3.418 -8.14,3.086 -3.422,7.597 -38.215,20.039 -8.172,-1.504 -7.172,4.961 -1.492,8.184 -32.356,28.652 -8.289,0.489 -5.781,6.503 0.496,8.321 -24.511,35.488 -7.946,2.481 -4.043,7.714 2.469,7.95 -15.324,40.41 -7.11,4.277 -2.089,8.477 4.296,7.089 -5.21,42.911 -5.875,5.859 v 8.73 l 5.875,5.879 5.199,42.832 -4.301,7.129 2.09,8.457 7.109,4.297 15.32,40.41 -2.472,7.93 4.047,7.715 7.933,2.48 24.551,35.547 -0.504,8.301 5.781,6.504 8.289,0.527 32.313,28.614 1.488,8.183 7.18,4.945 8.168,-1.507 38.266,20.082 3.414,7.59 8.14,3.093 7.574,-3.422 41.918,10.336"
         style="fill:#facb07;fill-opacity:1;fill-rule:nonzero;stroke:none"
         id="path14" />
      <g
         id="g16">
        <g
           id="g18"
           clip-path="url(#clipPath22)">
          <path
             d="M 815.273,382.34 748.676,533.141 759.813,368.648 M 630.488,893.176 697.082,742.359 685.945,906.848 M 572.07,863.652 672.816,733.141 622.656,890.207 M 522.371,820.973 651.434,718.395 565.129,858.863 m -80.766,-91.172 149.856,-68.75 -117.395,115.762 m -56.64,-107.871 161.949,-30.859 -141.68,84.257 m -29.164,-118.281 164.633,8.77 -157.75,47.929 m 0,-121.816 157.75,47.93 -164.633,8.789 m 29.164,-118.301 141.68,84.297 -161.949,-30.859 m 56.64,-107.891 117.395,115.742 -149.856,-68.75 M 565.129,416.637 651.434,557.125 522.371,454.508 M 622.656,385.289 672.816,542.34 572.07,411.832 M 685.945,368.648 697.082,533.141 630.488,382.34 m 120.95,-14.688 -28.559,162.364 -28.57,-162.364 m 179.382,44.18 -100.75,130.508 50.153,-157.051 m 100.265,69.219 -129.035,102.617 86.285,-140.488 m 80.778,91.152 -149.844,68.75 117.383,-115.742 m 56.621,107.891 -161.93,30.859 141.664,-84.297 m 29.172,118.301 -164.617,-8.789 157.742,-47.93 m 0,121.816 -157.742,-47.929 164.617,-8.77 m -29.172,118.281 -141.664,-84.257 161.93,30.859 m -56.621,107.871 -117.383,-115.762 149.844,68.75 m -80.778,91.172 -86.285,-140.468 129.035,102.578 m -100.265,69.234 -50.153,-157.066 100.75,130.511 m -113.878,43.196 -11.137,-164.489 66.597,150.817 m -63.835,14.679 -28.559,-162.371 -28.57,162.371"
             style="fill:#100f0d;fill-opacity:1;fill-rule:nonzero;stroke:none"
             id="path24" />
          <path
             d="m 525.262,774.078 c 3.051,4.414 1.949,10.469 -2.477,13.516 -4.422,3.047 -10.48,1.953 -13.535,-2.481 -3.047,-4.414 -1.937,-10.468 2.488,-13.515 4.414,-3.067 10.477,-1.953 13.524,2.48 z M 713.145,387.945 c 0,-5.39 4.347,-9.726 9.734,-9.726 5.375,0 9.738,4.336 9.738,9.726 0,5.391 -4.363,9.746 -9.738,9.746 -5.387,0 -9.734,-4.355 -9.734,-9.746 z m 207.332,386.133 c 3.039,-4.433 9.121,-5.547 13.535,-2.48 4.426,3.047 5.519,9.101 2.472,13.515 -3.039,4.434 -9.093,5.528 -13.515,2.481 -4.434,-3.047 -5.539,-9.102 -2.492,-13.516 z M 722.879,877.813 c 5.375,0 9.738,4.351 9.738,9.734 0,5.371 -4.363,9.719 -9.738,9.719 -5.387,0 -9.734,-4.348 -9.734,-9.719 0,-5.383 4.347,-9.734 9.734,-9.734 z m -68.637,-18.461 c 3.985,-0.332 8.262,-0.196 12.164,0.761 8.328,2.075 14.864,7.442 12.563,16.692 -1.309,5.258 -4.856,8.449 -14.965,8.226 -4.559,-0.14 -5.973,0.883 -6.344,2.399 -0.597,2.375 0.723,4.484 5.387,5.64 1.996,0.496 5.558,0.692 8.285,0.399 l 1.035,7.605 c -4.211,0.516 -8.344,0.516 -12.515,-0.515 -7.075,-1.778 -14.278,-7.52 -12.27,-15.582 1.801,-7.247 6.801,-8.422 11.512,-8.633 4.703,-0.199 9.172,0.562 10.039,-2.895 0.859,-3.535 -2.18,-4.918 -5.215,-5.676 -2.648,-0.652 -6.609,-0.652 -9.063,-0.519 z m -56.871,-5.098 c -3.941,7.504 -1.601,13.144 3.481,15.805 5.128,2.711 11.082,1.421 15.031,-6.075 3.941,-7.504 1.617,-13.129 -3.516,-15.843 -5.097,-2.657 -11.058,-1.368 -14.996,6.113 z m -9.176,-4.805 c 5.207,-9.941 16.289,-14.492 27.942,-8.398 11.609,6.113 14.129,17.812 8.926,27.75 -5.219,9.922 -16.301,14.484 -27.903,8.39 -11.64,-6.105 -14.18,-17.82 -8.965,-27.742 z m -76.984,-306.64 c -0.164,4.004 -0.816,8.222 -2.254,11.972 -3.07,8.028 -9.168,13.848 -18.074,10.449 -5.059,-1.933 -7.797,-5.82 -6.363,-15.839 0.703,-4.532 -0.145,-6.036 -1.602,-6.582 -2.289,-0.899 -4.551,0.156 -6.25,4.629 -0.742,1.953 -1.367,5.468 -1.395,8.183 l -7.683,0.137 c 0.008,-4.258 0.496,-8.36 2.031,-12.383 2.609,-6.797 9.188,-13.242 16.945,-10.273 6.977,2.656 7.536,7.753 7.172,12.461 -0.355,4.687 -1.66,9.042 1.68,10.312 3.379,1.289 5.129,-1.562 6.242,-4.492 0.977,-2.539 1.465,-6.485 1.613,-8.945 z m 443.184,80.39 c -1.739,-3.594 -3.118,-7.636 -3.594,-11.621 -1.016,-8.515 1.687,-16.543 11.14,-17.676 5.364,-0.644 9.602,1.543 13,11.055 1.485,4.356 2.95,5.293 4.5,5.098 2.414,-0.274 3.926,-2.266 3.36,-7.012 -0.235,-2.07 -1.328,-5.488 -2.578,-7.91 l 6.757,-3.672 c 1.954,3.769 3.438,7.598 3.946,11.894 0.879,7.247 -1.953,16.016 -10.184,16.993 -7.441,0.898 -10.293,-3.379 -12.179,-7.676 -1.856,-4.336 -2.723,-8.789 -6.27,-8.359 -3.613,0.429 -3.809,3.769 -3.438,6.875 0.325,2.714 1.7,6.406 2.715,8.652 z M 829.836,864.004 c 3.937,7.512 9.891,8.785 14.969,6.113 5.129,-2.687 7.461,-8.32 3.523,-15.844 -3.926,-7.48 -9.902,-8.769 -15.023,-6.074 -5.09,2.656 -7.407,8.301 -3.469,15.805 z m -9.191,4.816 c -5.211,-9.937 -2.672,-21.656 8.98,-27.769 11.594,-6.074 22.68,-1.524 27.898,8.418 5.196,9.922 2.661,21.636 -8.937,27.722 -11.645,6.106 -22.734,1.551 -27.941,-8.371 z m -55.54,-2.961 c 3.383,-2.148 7.239,-4.023 11.133,-4.968 8.336,-2.047 16.621,-0.328 18.891,8.914 1.281,5.265 -0.375,9.742 -9.434,14.254 -4.109,1.984 -4.871,3.55 -4.504,5.062 0.575,2.391 2.719,3.645 7.387,2.508 1.992,-0.496 5.254,-1.981 7.524,-3.508 l 4.449,6.246 c -3.481,2.414 -7.149,4.324 -11.321,5.36 -7.089,1.738 -16.117,-0.02 -18.105,-8.079 -1.766,-7.257 2.117,-10.617 6.188,-12.996 4.062,-2.379 8.375,-3.769 7.531,-7.23 -0.871,-3.531 -4.211,-3.336 -7.242,-2.602 -2.661,0.641 -6.164,2.477 -8.266,3.743 z M 529.16,827.008 557.629,799.254 c 1.949,2.012 3.926,3.945 5.945,5.879 l -17.726,18.535 28.058,-9.277 c 2.61,2.207 5.278,4.355 7.989,6.445 l -23.723,31.914 -7.91,-6.23 16.797,-20.586 -29.082,9.726 m -60.145,-104.883 15.629,-1.289 c -1.113,-2.812 -2.18,-5.586 -3.188,-8.418 l -12.484,9.59 z m -9.922,-1.484 32.586,-28.77 c 0.934,3.321 1.934,6.602 3.012,9.844 l -7.07,5.703 c 1.476,4.278 3.074,8.496 4.785,12.657 l 9.058,-0.411 c 1.399,3.243 2.867,6.504 4.407,9.688 l -43.028,1.172 m -3.98,-65.449 c 3.871,-0.43 4.351,-4.082 4.066,-6.465 -0.156,-1.387 -0.34,-2.969 -0.465,-4.297 l -9.543,0.957 c 0.164,1.582 0.196,3.027 0.356,4.473 0.445,4.003 2.429,5.703 5.586,5.332 z m -15.551,-19.551 40.141,-2.324 c 0.183,3.066 0.433,6.113 0.738,9.16 l -14.938,1.465 c 0.035,0.332 0.059,0.957 0.164,1.484 0.496,2.656 3.739,4.707 7.204,5.957 2.847,1.055 8.968,2.715 8.968,2.715 0.5,3.457 1.032,6.797 1.895,10.332 0,0 -10.5,-3.633 -14.281,-5.82 -2.411,-1.368 -3.75,-2.051 -5.243,-3.809 l -0.187,0.039 c -0.121,6.133 -3.746,10 -9.461,10.391 -6.981,0.507 -10.75,-5.801 -11.68,-13.477 l -1.73,0.137 m 2.562,-80.723 9.852,1.777 c -0.574,3.165 -1.086,6.368 -1.539,9.551 l 29.531,4.16 c -0.426,2.969 -0.832,6.153 -1.148,9.141 l -29.633,-2.988 c -0.348,3.301 -0.625,6.601 -0.836,9.863 l -9.903,-0.625 m 41.778,-128.281 29.984,8.808 0.059,-0.078 -19.113,-24.609 6.472,-8.32 23.789,34.296 c -2.125,2.93 -4.176,5.918 -6.152,8.946 l -40.281,-10.43 m 63.562,-73.848 25.043,30.821 c -6.574,5.312 -12.863,10.976 -18.828,16.992 l -6.055,-6.035 c 3.926,-3.965 7.989,-7.754 12.18,-11.426 L 544.59,434.039 m 63.461,-41.641 16.992,35.977 c -7.668,3.594 -15.121,7.578 -22.355,11.973 l -4.434,-7.305 c 4.754,-2.891 9.609,-5.605 14.562,-8.164 l -14.347,-27.793 m 65.047,-23.652 8.832,38.906 c -2.953,0.664 -6.059,1.387 -8.981,2.168 L 653.02,376.031 m 140.406,8.028 4.219,15.879 c -2.762,-0.86 -5.731,-1.739 -8.395,-2.481 l 3.688,-13.516 z m -25.328,-13.399 -1.61,9.883 c 5.196,0.879 10.371,1.914 16.16,3.262 l -1.625,6.484 c -5.242,-1.191 -9.761,-2.129 -14.433,-2.93 l -1.254,7.579 c 4.43,0.781 8.844,1.679 13.836,2.832 l -1.672,6.64 c -5.32,-1.25 -10.086,-2.187 -14.863,-2.988 l -1.407,8.418 c 7.793,1.308 15.528,3.027 23.153,5.156 l 2.933,-10.078 c 4.153,1.152 8.262,2.441 12.352,3.828 l 2.02,7.774 5.992,-13.457 -7.836,-25.04 m 53.554,22.383 -19.156,34.981 c -2.637,-1.485 -5.441,-2.949 -8.14,-4.317 l 17.769,-35.703 m 69.789,50.156 -7.031,7.11 c -2.262,-2.285 -4.598,-4.512 -6.996,-6.699 l -20.156,21.953 c -2.211,-2.032 -4.571,-4.16 -6.879,-6.114 l 19.261,-22.734 c -2.511,-2.148 -5.07,-4.219 -7.648,-6.269 l 6.207,-7.813 m 58.332,63.32 -33.184,22.071 c -1.652,-2.5 -3.457,-5.157 -5.207,-7.598 l 32.239,-23.32 m 38.562,76.855 -9.5,2.988 c -0.969,-3.066 -2.023,-6.132 -3.097,-9.179 l -28.075,10.058 c -0.996,-2.812 -2.101,-5.8 -3.234,-8.613 l 27.609,-11.152 c -1.211,-3.067 -2.511,-6.133 -3.847,-9.102 l 9.168,-4.082 m 22.617,132.852 -30.664,6.191 -0.02,0.098 28.379,12.929 -1.797,10.411 -37.07,-19.336 c 0.539,-3.614 0.93,-7.188 1.281,-10.801 l 40.496,-9.531 m -19.187,88.808 -37.024,-14.785 c 1.153,-2.812 2.297,-5.781 3.293,-8.594 l 37.5,13.321 M 901.25,841.539 880.848,818.082 c 4.191,-3.691 8.257,-7.5 12.168,-11.445 l -6.059,-6.016 c -5.961,6.016 -12.23,11.66 -18.809,16.992 l 25.059,30.723"
             style="fill:#ffffff;fill-opacity:1;fill-rule:nonzero;stroke:none"
             id="path26" />
        </g>
      </g>
      <path
         d="m 759.813,600.836 c -3.036,-3.106 -7.25,-5.02 -11.922,-5.02 h -9.805 c -5.488,0 -10.363,-2.656 -13.406,-6.757 h -3.614 c -3.031,4.101 -7.914,6.757 -13.402,6.757 h -9.793 c -9.215,0 -16.68,7.461 -16.68,16.68 v 66.953"
         style="fill:#c21a36;fill-opacity:1;fill-rule:nonzero;stroke:none"
         id="path28" />
      <path
         d="m 681.191,679.449 h 83.379 v -66.953 c 0,-4.57 -1.808,-8.652 -4.757,-11.66"
         style="fill:#ffffff;fill-opacity:1;fill-rule:nonzero;stroke:none"
         id="path30" />
      <path
         d="m 760.32,675.172 h -74.882 v -62.461 c 0,-6.816 5.566,-12.402 12.433,-12.402 h 9.793 c 5.977,0 11.262,-2.5 15.078,-6.485 h 0.266 c 3.832,3.985 9.109,6.485 15.078,6.485 h 9.805 c 6.867,0 12.429,5.586 12.429,12.402 z m 8.598,-62.461 c 0,-11.602 -9.422,-20.996 -21.027,-20.996 h -9.805 c -5.148,0 -9.563,-3.145 -11.453,-7.598 h -7.52 c -1.879,4.453 -6.293,7.598 -11.449,7.598 h -9.793 c -11.617,0 -21.031,9.394 -21.031,20.996 v 71.094 h 92.078 v -71.094"
         style="fill:#100f0d;fill-opacity:1;fill-rule:nonzero;stroke:none"
         id="path32" />
      <path
         d="m 2126.74,685.406 c 0,-7.824 3.58,-11.187 9.73,-11.187 5.06,0 9.97,3.187 16.09,10.582 l 2.94,-5.957 c -6.34,-11.395 -19.03,-19.235 -30.66,-19.235 -14.4,0 -23.93,8.071 -23.93,26.227 v 50.824 h -11.21 v 5.508 c 12.67,5.285 27.07,20.727 30.91,32.578 h 6.13 v -26.457 h 27.69 l -3.19,-11.629 h -24.5 z m -57.77,101.199 c 0,-8.476 -8.07,-14.398 -16.73,-14.398 -9.75,0 -16.95,6.152 -16.95,14.398 0,7.618 8.04,14.399 16.95,14.399 9.74,0 16.73,-6.363 16.73,-14.399 z m 9.96,-124.675 h -52.95 v 6.793 h 2.34 c 8.71,0 11.85,3.8 11.85,14.804 v 40.614 c 0,5.531 -1.25,7.023 -7.21,9.121 l -6.98,2.562 v 5.067 l 36.21,12.047 h 3.8 v -70.907 c 0,-8.672 3.6,-13.308 12.94,-13.308 z m -91.92,52.508 c -0.21,16.277 -5.95,26.246 -14.99,26.246 -8.73,0 -16.56,-11.223 -15.02,-26.246 z m 27.3,-27.965 c -11.83,-16.684 -29,-26.864 -45.34,-26.864 -23.02,0 -38.7,17.797 -38.7,43.371 0,27.965 18.86,47.661 45.27,47.661 11.26,0 20.15,-3.606 26.72,-10.176 12.47,-12.477 6.57,-24.336 13.96,-28.172 v -6.113 h -58.64 c 1.67,-17.586 13.55,-30.895 26.02,-30.895 7.88,0 15.5,4.406 25.84,15.242 z m -123.56,-1.067 c 0,-7.824 3.56,-11.187 9.7,-11.187 5.07,0 9.89,3.187 16.08,10.582 l 2.96,-5.957 c -6.34,-11.395 -19.04,-19.235 -30.71,-19.235 -14.37,0 -23.92,8.071 -23.92,26.227 v 50.824 h -11.21 v 5.508 c 12.71,5.285 27.1,20.727 30.91,32.578 h 6.19 v -26.457 h 27.69 l -3.18,-11.629 h -24.51 z m -57.84,101.199 c 0,-8.476 -8.02,-14.398 -16.73,-14.398 -9.72,0 -16.92,6.152 -16.92,14.398 0,7.618 8.04,14.399 16.92,14.399 9.74,0 16.73,-6.363 16.73,-14.399 z m 9.96,-124.675 h -52.95 v 6.793 h 2.36 c 8.66,0 11.84,3.8 11.84,14.804 v 40.614 c 0,5.531 -1.22,7.023 -7.17,9.121 l -7.03,2.562 v 5.067 l 36.21,12.047 h 3.8 v -70.907 c 0,-8.672 3.6,-13.308 12.94,-13.308 z m -132.93,24.98 h 6.77 c 3.6,-11.855 12.92,-18.187 22,-18.187 5.94,0 10.97,4.449 10.97,9.715 0,14.609 -39.74,19.675 -39.74,45.32 0,16.09 13.34,26.883 33.18,26.883 8.07,0 14.86,-1.274 23.74,-4.461 l 0.41,-22.645 h -6.8 c -3.8,11.641 -10.79,17.973 -19.88,17.973 -5.49,0 -9.71,-3.387 -9.71,-8.024 0,-17.355 41.69,-18.004 41.69,-47.011 0,-15.641 -11.21,-26.653 -27.52,-26.653 -14.64,0 -19.48,2.977 -22.45,2.977 -1.25,0 -2.51,-0.867 -4.22,-2.758 h -6.13 z m -33.48,-24.98 h -58.81 v 6.793 h 1.48 c 8.66,0 11.81,3.8 11.81,14.804 v 34.512 c 0,9.52 -1.26,11.633 -7.61,14.172 l -5.68,2.34 v 5.297 l 34.67,13.09 h 4.47 v -23.684 h 0.46 c 7.79,15.23 11.16,21.387 18.37,21.387 1.51,0 3.19,-0.231 4.22,-0.649 l 16.71,-6.152 c -2.51,-8.871 -5.9,-16.488 -10.12,-22.414 -6.59,2.527 -14.41,5.265 -17.17,5.265 -4.22,0 -7.83,-2.933 -12.47,-9.519 V 682.91 c 0,-10.176 3.18,-14.187 14.19,-14.187 h 5.48 z m -99.26,52.508 c -0.19,16.277 -5.93,26.246 -15.04,26.246 -8.68,0 -16.51,-11.223 -15.03,-26.246 z m 27.3,-27.965 c -11.87,-16.684 -28.99,-26.864 -45.28,-26.864 -23.12,0 -38.73,17.797 -38.73,43.371 0,27.965 18.82,47.661 45.27,47.661 11.25,0 20.07,-3.606 26.65,-10.176 12.54,-12.477 6.58,-24.336 13.99,-28.172 v -6.113 h -58.64 c 1.7,-17.586 13.54,-30.895 26.03,-30.895 7.82,0 15.44,4.406 25.83,15.242 z m -193.88,61.816 h 53.76 v -6.781 h -7.4 c -4.48,0 -6.33,-4 -2.74,-11.836 l 18.8,-42.152 16.5,37.281 c 4.88,11.023 2.36,15.242 -12.45,16.707 v 6.781 h 42.09 v -6.781 c -11.01,-1.043 -13.74,-3.805 -17.77,-12.672 l -30.24,-68.379 h -12.7 l -31.54,67.926 c -4,8.695 -7.02,12.082 -16.31,13.125 z m -12.28,38.316 c 0,-8.476 -8.06,-14.398 -16.71,-14.398 -9.76,0 -16.93,6.152 -16.93,14.398 0,7.618 8.03,14.399 16.93,14.399 9.68,0 16.71,-6.363 16.71,-14.399 z m 9.94,-124.675 h -52.9 v 6.793 h 2.33 c 8.68,0 11.84,3.8 11.84,14.804 v 40.614 c 0,5.531 -1.28,7.023 -7.2,9.121 l -6.97,2.562 v 5.067 l 36.18,12.047 h 3.85 v -70.907 c 0,-8.672 3.54,-13.308 12.87,-13.308 z m -78.95,19.258 c 0,-10.356 3.77,-12.465 12.07,-12.465 v -6.793 h -49.98 v 6.793 c 8.68,0.617 12.08,6.562 12.08,23.918 v 18.41 c 0,16.937 -4.67,23.5 -13.11,23.5 -6.58,0 -13.57,-3.18 -22.47,-9.324 v -42.973 c 0,-9.52 4.05,-13.531 12.49,-13.531 h 1.9 v -6.793 h -53.54 v 6.793 h 1.25 c 8.92,0 12.07,3.8 12.07,14.804 v 41.274 c 0,4.66 -2.53,7.41 -9.96,9.519 l -4.4,1.274 v 5.09 l 36.17,12.254 h 4.02 v -18.805 c 15.43,10.144 29,16.508 39.15,16.508 15.48,0 22.26,-11.036 22.26,-36.403 z m -154.31,112.406 h 54.83 v -8.254 h -1.5 c -16.9,0 -19.48,-7.406 -19.48,-17.586 v -52.703 c 0,-47.196 -34.27,-56.055 -59.46,-56.055 -38.12,0 -62.23,16.473 -62.23,48.867 v 63.09 c 0,10.563 -2.95,14.387 -14.82,14.387 h -3.6 v 8.254 h 66.29 v -8.254 h -3.61 c -8.9,0 -15.06,-4.024 -15.06,-14.387 v -63.09 c 0,-25.832 19.08,-34.691 38.32,-34.691 27.76,0 41.51,15.652 41.51,38.957 v 51.406 c 0,15.012 -4.26,21.805 -17.39,21.805 h -3.8 v 8.254"
         style="fill:#100f0d;fill-opacity:1;fill-rule:nonzero;stroke:none"
         id="path34" />
      <path
         d="m 1740.14,505.41 c 0,-7.836 3.6,-11.18 9.72,-11.18 5.09,0 9.92,3.157 16.1,10.563 l 2.97,-5.922 c -6.37,-11.422 -19.07,-19.258 -30.71,-19.258 -14.39,0 -23.92,8.067 -23.92,26.246 v 50.77 h -11.2 v 5.551 c 12.71,5.265 27.09,20.73 30.88,32.566 h 6.16 v -26.457 h 27.68 l -3.11,-11.66 h -24.57 z m -118.98,-2.109 c 0,-13.324 3.62,-14.598 11.01,-14.598 h 2.11 v -6.758 h -53.58 v 6.758 h 3.02 c 10.81,0 11.63,4.242 11.63,15.465 v 92.492 c 0,6.11 -1.07,7.606 -6.78,9.52 l -6.14,2.109 v 4.883 l 33.66,10.363 h 5.07 v -68.984 c 11.87,8.246 27.07,16.07 38.08,16.07 15.51,0 23.12,-12.465 23.12,-37.445 v -27.977 c 0,-12.496 1.45,-16.496 9.52,-16.496 h 2.08 v -6.758 h -49.95 v 6.758 h 1.7 c 8.89,0 10.81,3.418 10.81,15.465 v 31.953 c 0,11.406 -5.3,18.617 -13.75,18.617 -5.75,0 -14.19,-3.152 -21.61,-8.035 z m -45.91,-1.043 c -9.74,-14.809 -24.58,-22.645 -43.17,-22.645 -25.82,0 -44.48,17.586 -44.48,41.922 0,27.719 23.95,49.086 54.82,49.086 18.21,0 31.98,-7.617 31.98,-17.992 0,-6.332 -4.22,-10.598 -10.82,-10.598 -14.78,0 -17.93,18.852 -30.22,18.852 -10.6,0 -17.83,-12.903 -17.83,-31.942 0,-22.871 10.84,-38.312 26.48,-38.312 9.55,0 18.41,4.844 27.09,15.023 z m -129.52,32.148 c -0.21,16.309 -5.93,26.246 -15.06,26.246 -8.66,0 -16.47,-11.179 -15.02,-26.246 z M 1473,506.488 c -11.81,-16.687 -28.98,-26.875 -45.29,-26.875 -23.07,0 -38.72,17.774 -38.72,43.383 0,27.942 18.87,47.625 45.27,47.625 11.26,0 20.15,-3.605 26.69,-10.168 12.5,-12.473 6.58,-24.332 13.99,-28.148 v -6.133 h -58.64 c 1.7,-17.574 13.53,-30.899 26.04,-30.899 7.81,0 15.43,4.422 25.84,15.258 z m -112.16,-24.543 h -58.87 v 6.758 h 1.49 c 8.69,0 11.84,3.805 11.84,14.793 v 34.516 c 0,9.515 -1.25,11.66 -7.59,14.187 l -5.74,2.352 v 5.265 l 34.71,13.125 h 4.48 v -23.687 h 0.41 c 7.82,15.234 11.21,21.367 18.42,21.367 1.46,0 3.18,-0.219 4.21,-0.625 l 16.72,-6.156 c -2.53,-8.902 -5.91,-16.477 -10.1,-22.422 -6.62,2.551 -14.43,5.285 -17.21,5.285 -4.22,0 -7.78,-2.976 -12.45,-9.515 v -34.305 c 0,-10.18 3.17,-14.18 14.18,-14.18 h 5.5 z m -97.36,23.465 c 0,-7.836 3.56,-11.18 9.72,-11.18 5.06,0 9.93,3.157 16.08,10.563 l 2.98,-5.922 c -6.36,-11.422 -19.06,-19.258 -30.71,-19.258 -14.37,0 -23.96,8.067 -23.96,26.246 v 50.77 h -11.18 v 5.551 c 12.69,5.265 27.13,20.73 30.91,32.566 h 6.16 v -26.457 h 27.69 l -3.16,-11.66 h -24.53 z m -88.49,108.164 h 54.87 v -8.242 h -1.51 c -16.91,0 -19.48,-7.398 -19.48,-17.574 v -52.684 c 0,-47.219 -34.27,-56.078 -59.45,-56.078 -38.12,0 -62.24,16.477 -62.24,48.871 v 63.067 c 0,10.609 -2.95,14.398 -14.82,14.398 h -3.6 v 8.242 h 66.25 v -8.242 h -3.56 c -8.95,0 -15.03,-4.012 -15.03,-14.398 v -63.067 c 0,-25.82 19,-34.711 38.26,-34.711 27.75,0 41.53,15.641 41.53,38.942 v 51.429 c 0,15.024 -4.25,21.805 -17.39,21.805 h -3.83 v 8.242"
         style="fill:#100f0d;fill-opacity:1;fill-rule:nonzero;stroke:none"
         id="path36" />
    </g>
  </g>
</svg>
